<svg width="21" height="12" viewBox="0 0 21 12" fill="none" xmlns="http://www.w3.org/2000/svg">
<path d="M7.01359 6.71308H9.62705L8.26034 10.24C8.06326 10.7486 8.5988 11.0134 8.94584 10.6057L13.1702 5.57388C13.2559 5.47299 13.2988 5.37211 13.2988 5.26281C13.2988 5.06944 13.1445 4.92652 12.9346 4.92652H10.3211L11.6836 1.39543C11.8806 0.890992 11.3451 0.621957 11.0023 1.02971L6.77366 6.06151C6.68797 6.1666 6.64941 6.26328 6.64941 6.37258C6.64941 6.57015 6.80365 6.71308 7.01359 6.71308Z" fill="white"/>
<path d="M19.9481 4.15584C20.4072 4.15584 20.7793 4.52797 20.7793 4.98701V6.64934C20.7793 7.10839 20.4072 7.48051 19.9481 7.48051V4.15584Z" fill="#3C3C43" fill-opacity="0.6"/>
<path fill-rule="evenodd" clip-rule="evenodd" d="M2.49363 0.831161H16.6235C18.0006 0.831161 19.117 1.94754 19.117 3.32467V8.31168C19.117 9.68881 18.0006 10.8052 16.6235 10.8052H2.49363C1.1165 10.8052 0.00012207 9.68881 0.00012207 8.31168V3.32467C0.00012207 1.94754 1.1165 0.831161 2.49363 0.831161ZM2.49363 1.66233C1.57554 1.66233 0.831291 2.40658 0.831291 3.32467V8.31168C0.831291 9.22976 1.57554 9.97402 2.49363 9.97402H16.6235C17.5416 9.97402 18.2858 9.22976 18.2858 8.31168V3.32467C18.2858 2.40658 17.5416 1.66233 16.6235 1.66233H2.49363Z" fill="#3C3C43" fill-opacity="0.6"/>
<rect x="1.66235" y="2.4935" width="15.7922" height="6.64935" rx="0.831169" fill="black"/>
</svg>
