<svg width="45" height="46" viewBox="0 0 45 46" fill="none" xmlns="http://www.w3.org/2000/svg">
<path d="M14.9661 18.4897C16.8506 12.9879 21.883 9 28.0345 9C35.7965 9 42.1724 15.3425 42.1724 23.0788C42.1724 30.7499 35.7829 37.2713 28.0345 37.1818H13.8966C8.62604 37.1818 4 33.1901 4 28.0064C4 22.8227 8.27259 18.3859 13.5431 18.3859C14.0261 18.3859 14.5013 18.4213 14.9661 18.4897Z" fill="#F0F1F1"/>
<mask id="mask0_729_3766" style="mask-type:alpha" maskUnits="userSpaceOnUse" x="4" y="9" width="39" height="29">
<path d="M14.9661 18.4897C16.8506 12.9879 21.883 9 28.0345 9C35.7965 9 42.1724 15.3425 42.1724 23.0788C42.1724 30.7499 35.7829 37.2713 28.0345 37.1818H13.8966C8.62604 37.1818 4 33.1901 4 28.0064C4 22.8227 8.27259 18.3859 13.5431 18.3859C14.0261 18.3859 14.5013 18.4213 14.9661 18.4897Z" fill="#F0F1F1"/>
</mask>
<g mask="url(#mask0_729_3766)">
<g style="mix-blend-mode:multiply" opacity="0.5">
<path d="M8.58609 32.5909C5.78609 26.5909 9.75276 20.7576 12.0861 18.5909L10.0862 15.5909C8.25285 16.0909 4.28618 17.1909 3.08618 17.5909C1.58618 18.0909 -5.41382 24.5909 -5.91382 25.0909C-6.31382 25.4909 -7.74715 33.5909 -8.41382 37.5909C-0.913818 38.4242 14.2862 40.0909 15.0862 40.0909C16.0862 40.0909 12.0861 40.0909 8.58609 32.5909Z" fill="#F0F1F1"/>
</g>
</g>
<path d="M14.9315 18.8607C14.9315 18.8607 14.3684 20.558 14.3694 21.6809C14.3705 22.8036 14.5032 23.4634 14.9365 24.4999" stroke="#DEDEDE" stroke-width="2" stroke-linecap="round" stroke-linejoin="round"/>
</svg>
