<svg width="93" height="16" viewBox="0 0 93 16" fill="none" xmlns="http://www.w3.org/2000/svg">
<path d="M31.0562 1.15314C30.3017 0.713961 29.4459 0.5 28.4887 0.5C27.5315 0.5 26.6756 0.713961 25.9211 1.15314C25.1666 1.59233 24.5698 2.21169 24.1419 2.99996C23.714 3.7995 23.5 4.71165 23.5 5.75893C23.5 6.79496 23.714 7.71837 24.1419 8.51791C24.5698 9.31744 25.1666 9.92554 25.9211 10.3647C26.6756 10.8039 27.5315 11.0179 28.4887 11.0179C29.4459 11.0179 30.3017 10.8039 31.0562 10.3647C31.8107 9.92554 32.4075 9.30618 32.8355 8.51791C33.2634 7.71837 33.4773 6.80622 33.4773 5.75893C33.4773 4.72291 33.2634 3.7995 32.8355 2.99996C32.4075 2.20043 31.8107 1.59233 31.0562 1.15314ZM30.7522 8.27016C30.2229 8.91205 29.4684 9.22736 28.4887 9.22736C27.509 9.22736 26.7545 8.91205 26.2252 8.27016C25.6959 7.63954 25.4369 6.79496 25.4369 5.75893C25.4369 4.72291 25.6959 3.87833 26.2252 3.24771C26.7545 2.61709 27.509 2.29052 28.4887 2.29052C29.4684 2.29052 30.2229 2.60583 30.7522 3.24771C31.2814 3.88959 31.5404 4.72291 31.5404 5.75893C31.5404 6.79496 31.2814 7.62828 30.7522 8.27016Z" fill="black"/>
<path d="M34.0176 2.48195H36.8779V10.8152H38.7247V2.48195H41.585V0.691437H34.0176V2.48195Z" fill="black"/>
<path d="M49.4005 4.70039H44.7721V0.691437H42.9141V10.8152H44.7721V6.4346H49.4005V10.8152H51.2473V0.691437H49.4005V4.70039Z" fill="black"/>
<path d="M55.3689 6.4346H58.9274V4.64408H55.3689V2.48195H59.9522V0.691437H53.4771V10.8152H60.0986V9.02465H55.3689V6.4346Z" fill="black"/>
<path d="M68.4207 5.48867C68.7247 5.03822 68.8711 4.46391 68.8711 3.76572C68.8711 2.75222 68.5558 1.98646 67.9365 1.47971C67.3171 0.961702 66.4613 0.702698 65.3802 0.702698H61.6753V10.8264H63.5221V7.06522H65.3239H65.3915L67.3396 10.8264H69.4117L67.1257 6.581C67.7 6.28821 68.1279 5.93911 68.4207 5.48867ZM64.896 5.51119H63.5334V2.24547H64.9635C65.6617 2.24547 66.1572 2.3806 66.4725 2.66213C66.7878 2.94366 66.9342 3.3378 66.9342 3.86707C66.9342 4.9594 66.2586 5.51119 64.896 5.51119Z" fill="black"/>
<path d="M73.5443 0.511261H72.2943L70.8529 8.75439C70.7628 9.31744 70.7178 9.65528 70.7178 9.76789C70.7178 10.1282 70.8191 10.4098 71.0331 10.6237C71.247 10.8377 71.5736 10.9503 72.0353 10.9503H72.4632L72.7898 9.95933C72.497 9.95933 72.2943 9.92554 72.1817 9.84672C72.0691 9.77915 72.0128 9.63275 72.0128 9.40753C72.0128 9.33996 72.0353 9.15979 72.0804 8.867L73.5443 0.511261Z" fill="black"/>
<path d="M75.425 1.19818L75.1885 2.57204H76.4385L76.6749 1.19818H75.425Z" fill="black"/>
<path d="M73.7358 10.8152H74.9858L76.1682 4.08102H74.9183L73.7358 10.8152Z" fill="black"/>
<path d="M80.8752 3.94589C80.5036 3.94589 80.1657 4.0022 79.8504 4.12607C79.5351 4.24994 79.2085 4.47516 78.8707 4.79048L78.9158 4.08103H77.8572L76.6748 10.8152H77.9248L78.7919 5.92785C78.9833 5.63506 79.2198 5.40984 79.5126 5.26344C79.8054 5.11705 80.1207 5.03822 80.4698 5.03822C80.8639 5.03822 81.1567 5.13957 81.3369 5.33101C81.5283 5.52245 81.6184 5.83776 81.6184 6.25442C81.6184 6.38955 81.5734 6.71613 81.4945 7.23414C81.4157 7.75215 81.2018 8.93456 80.8752 10.7926H82.1252C82.4517 8.93456 82.6657 7.72962 82.7558 7.17783C82.8459 6.62604 82.8909 6.26568 82.8909 6.07424C82.8909 5.36479 82.7333 4.83552 82.4067 4.4639C82.0801 4.12607 81.5734 3.94589 80.8752 3.94589Z" fill="black"/>
<path d="M89.8055 4.08103H88.3191L85.6389 7.12153L86.8101 0.511261H85.5601L83.7471 10.8152H84.9971L85.6052 7.39179L87.1817 10.8152H88.6457L86.8326 7.1891L89.8055 4.08103Z" fill="black"/>
<path d="M12.2658 1.44142C12.4234 1.4189 12.5811 1.40764 12.7387 1.40764C13.4594 1.40764 14.1576 1.59908 14.7883 1.95943C16.7364 3.08554 17.4121 5.58551 16.286 7.53368C15.1599 9.48185 12.6599 10.1575 10.7117 9.03141C8.76356 7.9053 8.0879 5.40533 9.21401 3.45716C9.38293 3.14185 9.27031 2.75897 8.97752 2.56753C8.66221 2.36483 8.23429 2.45492 8.04285 2.78149C7.56989 3.60355 7.31088 4.54949 7.31088 5.49542C7.31088 8.50213 9.74328 10.9458 12.75 10.9458C15.7567 10.9458 18.1891 8.5134 18.1891 5.50668C18.1891 2.49996 15.7567 0.0675659 12.75 0.0675659C12.536 0.0675659 12.3221 0.0788274 12.1081 0.10135C11.7365 0.146394 11.4662 0.495489 11.5113 0.867105C11.5451 1.22746 11.8829 1.48647 12.2658 1.44142Z" fill="black"/>
<path d="M7.29956 10.9345C7.51352 10.9345 7.72748 10.9233 7.94144 10.9007C8.31306 10.8557 8.58332 10.5066 8.53828 10.135C8.49323 9.76338 8.14414 9.49311 7.77253 9.53816C7.61487 9.56068 7.45721 9.57194 7.29956 9.57194C6.57885 9.57194 5.88066 9.3805 5.25004 9.02014C3.30186 7.89403 2.6262 5.39407 3.75231 3.4459C4.87842 1.49773 7.37839 0.833322 9.33782 1.95943C11.286 3.08554 11.9617 5.58551 10.8355 7.53368C10.8243 7.54494 10.813 7.56746 10.8018 7.57872C10.6328 7.91656 10.7567 8.32196 11.0946 8.50213C11.4324 8.67105 11.8378 8.54718 12.018 8.20934C12.5022 7.37602 12.7612 6.41883 12.7499 5.45037C12.7387 2.4324 10.295 0 7.27703 0C4.25906 0.0112611 1.82666 2.45492 1.82666 5.4729C1.82666 8.51339 4.28158 10.9458 7.29956 10.9345Z" fill="black"/>
</svg>
