<svg width="211" height="175" viewBox="0 0 211 175" fill="none" xmlns="http://www.w3.org/2000/svg">
<g style="mix-blend-mode:multiply" opacity="0.3">
<path d="M105.603 174.751C163.559 174.751 210.541 148.762 210.541 116.704C210.541 84.646 163.559 58.6578 105.603 58.6578C47.6474 58.6578 0.664917 84.646 0.664917 116.704C0.664917 148.762 47.6474 174.751 105.603 174.751Z" fill="#F0F0F0"/>
</g>
<path d="M177.871 125.395L133.615 99.8749L146.681 92.3349C147.502 91.8709 147.502 91.0913 146.681 90.6134L95.256 60.8478C94.795 60.6146 94.2856 60.4931 93.7689 60.4931C93.2522 60.4931 92.7428 60.6146 92.2818 60.8478L19.1229 103.16C18.3016 103.624 18.3016 104.408 19.1229 104.881L70.4877 134.577C70.9487 134.811 71.4582 134.932 71.9748 134.932C72.4915 134.932 73.0009 134.811 73.462 134.577L84.1896 128.415L128.451 153.935L177.871 125.395Z" fill="#E0E0E0"/>
<path d="M74.427 130.944L140.556 92.7664C141.349 92.2487 142.008 91.5518 142.481 90.732C142.954 89.9122 143.228 88.9926 143.28 88.0475V64.8243C143.228 63.8792 142.954 62.9596 142.481 62.1398C142.008 61.3201 141.349 60.6231 140.556 60.1054L94.8802 33.7317C94.0352 33.3036 93.1013 33.0806 92.1542 33.0806C91.207 33.0806 90.2731 33.3036 89.4282 33.7317L23.3035 71.9096C22.5111 72.4273 21.8517 73.1242 21.3785 73.944C20.9054 74.7638 20.6318 75.6834 20.5798 76.6285V99.8517C20.631 100.798 20.9043 101.718 21.3775 102.539C21.8507 103.359 22.5105 104.057 23.3035 104.575L68.9797 130.944C69.824 131.372 70.7571 131.594 71.7034 131.594C72.6497 131.594 73.5827 131.372 74.427 130.944Z" fill="#B0E5D9"/>
<path d="M71.7034 129.371V106.148C71.6514 105.203 71.3778 104.283 70.9047 103.464C70.4315 102.644 69.7721 101.947 68.9797 101.429L23.3035 75.0555C21.7955 74.1878 20.5798 74.8931 20.5798 76.6285V99.8517C20.631 100.798 20.9043 101.718 21.3775 102.539C21.8507 103.359 22.5105 104.057 23.3035 104.575L68.9797 130.944C70.483 131.812 71.7034 131.111 71.7034 129.371Z" fill="#263238"/>
<path d="M142.018 61.4464L70.4459 102.77C70.0509 102.23 69.5525 101.775 68.9797 101.429L23.3081 75.0602C21.944 74.2714 20.8211 74.7632 20.6169 76.1506C20.7351 75.2926 21.0366 74.4702 21.501 73.7392C21.9654 73.0082 22.5817 72.3858 23.3081 71.9142L89.4282 33.727C90.2731 33.299 91.207 33.0759 92.1542 33.0759C93.1013 33.0759 94.0352 33.299 94.8801 33.727L140.552 60.1101C141.126 60.4511 141.625 60.9058 142.018 61.4464Z" fill="#B0E5D9"/>
<path d="M142.018 61.4464L70.4459 102.77C70.0509 102.23 69.5525 101.775 68.9797 101.429L23.3081 75.0602C21.944 74.2714 20.8211 74.7632 20.6169 76.1506C20.7351 75.2926 21.0366 74.4702 21.501 73.7392C21.9654 73.0082 22.5817 72.3858 23.3081 71.9142L89.4282 33.727C90.2731 33.299 91.207 33.0759 92.1542 33.0759C93.1013 33.0759 94.0352 33.299 94.8801 33.727L140.552 60.1101C141.126 60.4511 141.625 60.9058 142.018 61.4464Z" fill="#455A64"/>
<path d="M143.275 64.8243V88.0243C143.228 88.9706 142.957 89.892 142.483 90.7125C142.01 91.533 141.348 92.2291 140.552 92.7432L74.4317 130.926C73.6551 131.318 72.803 131.539 71.9335 131.572C71.0639 131.606 70.1974 131.452 69.3927 131.121C70.6965 131.659 71.7127 130.926 71.7127 129.348V106.148C71.6591 104.918 71.2191 103.736 70.4553 102.77L142.018 61.4464C142.782 62.4123 143.222 63.5942 143.275 64.8243Z" fill="#37474F"/>
<path d="M129.16 72.6288V78.7722C129.12 79.5289 128.901 80.2655 128.523 80.9224C128.145 81.5793 127.618 82.1381 126.984 82.5538L89.8643 104C88.6626 104.7 87.6835 104.134 87.6835 102.747V96.6037C87.6851 95.4605 87.3245 94.3462 86.6534 93.4206L128.158 69.455C128.816 70.3822 129.166 71.4921 129.16 72.6288Z" fill="#B0E5D9"/>
<path opacity="0.15" d="M129.16 72.6288V78.7722C129.12 79.5289 128.901 80.2655 128.523 80.9224C128.145 81.5793 127.618 82.1381 126.984 82.5538L89.8643 104C88.6626 104.7 87.6835 104.134 87.6835 102.747V96.6037C87.6851 95.4605 87.3245 94.3462 86.6534 93.4206L128.158 69.455C128.816 70.3822 129.166 71.4921 129.16 72.6288Z" fill="black"/>
<path d="M128.14 69.4551L86.6349 93.416C86.1881 92.7864 85.6104 92.2608 84.9413 91.8756L54.0574 74.044C52.8557 73.3527 52.8557 72.2205 54.0574 71.5292L91.1774 50.0738C91.8538 49.7328 92.6007 49.5551 93.3582 49.5551C94.1157 49.5551 94.8626 49.7328 95.539 50.0738L126.441 67.896C127.114 68.2868 127.693 68.8187 128.14 69.4551Z" fill="#B0E5D9"/>
<path d="M86.9735 69.4968C83.9761 71.2275 83.9761 74.0347 86.9735 75.7654C89.971 77.4962 94.8337 77.4962 97.8311 75.7654C100.829 74.0347 100.833 71.2322 97.8311 69.4968C94.8291 67.7614 89.971 67.7661 86.9735 69.4968Z" fill="#FAFAFA"/>
<path d="M81.7072 116.959C81.7401 116.31 81.9253 115.678 82.2477 115.114C82.5702 114.55 83.0208 114.069 83.5632 113.711L134.329 84.4005C135.364 83.8066 136.185 84.2891 136.185 85.4862V95.272L81.7072 126.745V116.959Z" fill="#263238"/>
<path d="M83.4843 119.813V116.862L134.612 87.3469V90.2979L83.4843 119.813Z" fill="black"/>
<path d="M35.915 70.5315L87.0432 41.0118L89.5442 42.4642L38.4253 71.9792L35.915 70.5315Z" fill="#263238"/>
<path d="M37.1028 71.2275L29.7531 38.7475L80.8812 9.22783L88.2263 41.7125L37.1028 71.2275Z" fill="#37474F"/>
<path d="M29.7531 38.7475L28.5699 38.0515L35.9151 70.5315L37.1029 71.2275L29.7531 38.7475Z" fill="#263238"/>
<path d="M28.5699 38.0515L29.7531 38.7475L80.8813 9.22783L79.6981 8.53183L28.5699 38.0515Z" fill="#455A64"/>
<path d="M38.583 70.3738L29.7067 31.0915L76.5289 4.05888L85.4052 43.3411L38.583 70.3738Z" fill="#E0E0E0"/>
<path d="M39.8869 71.1347L31.006 31.8525L77.8329 4.81984L86.7092 44.1021L39.8869 71.1347Z" fill="#FAFAFA"/>
<path d="M31.0059 31.8525L29.7067 31.0915L38.8846 71.7147L39.8868 71.1347L31.0059 31.8525Z" fill="#E0E0E0"/>
<path d="M29.7067 31.0915L31.0059 31.8525L77.8327 4.81984L76.5289 4.05888L29.7067 31.0915Z" fill="#EBEBEB"/>
<path d="M78.6958 94.4414V93.8521C78.6826 93.7154 78.6325 93.5849 78.5507 93.4746C78.469 93.3642 78.3587 93.2782 78.2318 93.2257L77.0022 92.5158C76.6643 92.3442 76.2907 92.2548 75.9118 92.2548C75.5329 92.2548 75.1593 92.3442 74.8214 92.5158L70.1814 95.1931C70.0541 95.2463 69.9437 95.3332 69.862 95.4443C69.7802 95.5555 69.7303 95.6868 69.7174 95.8241V96.4227C69.7336 96.5573 69.785 96.6852 69.8665 96.7936C69.948 96.902 70.0566 96.9869 70.1814 97.0398L71.411 97.7497C71.7489 97.9213 72.1225 98.0108 72.5014 98.0108C72.8803 98.0108 73.2539 97.9213 73.5918 97.7497L78.2318 95.0725C78.3575 95.0196 78.4668 94.934 78.5484 94.8247C78.63 94.7154 78.6808 94.5863 78.6958 94.4507V94.4414Z" fill="#263238"/>
<path d="M71.4296 97.1605L70.2 96.4505C69.6015 96.1025 69.6015 95.5225 70.2 95.1931L74.84 92.5158C75.1779 92.3442 75.5515 92.2548 75.9304 92.2548C76.3094 92.2548 76.6829 92.3442 77.0208 92.5158L78.2504 93.2257C78.849 93.5691 78.849 94.1537 78.2504 94.4832L73.6104 97.1605C73.2719 97.3299 72.8986 97.4181 72.52 97.4181C72.1415 97.4181 71.7681 97.3299 71.4296 97.1605Z" fill="#37474F"/>
<path d="M72.585 96.664C72.2617 96.6702 71.9422 96.5935 71.657 96.4413C71.5633 96.3946 71.4801 96.3294 71.4123 96.2496C71.3445 96.1699 71.2936 96.0772 71.2626 95.9773C71.2444 95.9069 71.2408 95.8336 71.2519 95.7618C71.2631 95.69 71.2888 95.6212 71.3275 95.5597C71.3338 95.5483 71.3423 95.5383 71.3525 95.5302C71.3627 95.5221 71.3744 95.5162 71.387 95.5127C71.3995 95.5093 71.4126 95.5084 71.4255 95.51C71.4384 95.5117 71.4509 95.516 71.4621 95.5226C71.4845 95.5369 71.5008 95.5592 71.5077 95.585C71.5146 95.6107 71.5115 95.6381 71.4992 95.6618C71.4731 95.7 71.4554 95.7434 71.4474 95.789C71.4394 95.8346 71.4412 95.8814 71.4528 95.9262C71.5066 96.0749 71.6165 96.1966 71.7591 96.265C72.0148 96.3953 72.2979 96.4633 72.585 96.4633C72.8721 96.4633 73.1551 96.3953 73.4109 96.265C73.5025 96.2393 73.5831 96.1843 73.6406 96.1085C73.698 96.0327 73.7291 95.9402 73.7291 95.845C73.7291 95.7499 73.698 95.6574 73.6406 95.5816C73.5831 95.5058 73.5025 95.4508 73.4109 95.4251C73.0375 95.2345 72.6096 95.1788 72.1999 95.2674C72.1737 95.2706 72.1471 95.2645 72.125 95.2501C72.103 95.2356 72.0867 95.2138 72.0792 95.1885C72.0749 95.1622 72.0806 95.1352 72.0952 95.1128C72.1098 95.0905 72.1322 95.0744 72.1581 95.0678C72.6176 94.9713 73.0963 95.0369 73.513 95.2534C73.6337 95.2983 73.7379 95.379 73.8114 95.4847C73.885 95.5905 73.9244 95.7162 73.9244 95.845C73.9244 95.9738 73.885 96.0996 73.8114 96.2053C73.7379 96.3111 73.6337 96.3918 73.513 96.4366C73.2282 96.5905 72.9087 96.6688 72.585 96.664Z" fill="#FAFAFA"/>
<path d="M72.6267 95.9726H72.5803L71.4342 95.3091C71.4232 95.3025 71.4136 95.2937 71.406 95.2833C71.3984 95.2729 71.3929 95.2611 71.3899 95.2486C71.3869 95.2361 71.3864 95.2231 71.3884 95.2104C71.3904 95.1977 71.395 95.1855 71.4017 95.1746C71.408 95.1632 71.4165 95.1531 71.4267 95.1451C71.4369 95.137 71.4486 95.1311 71.4612 95.1276C71.4737 95.1242 71.4868 95.1232 71.4997 95.1249C71.5126 95.1266 71.5251 95.1309 71.5363 95.1374L72.6777 95.7963C72.6898 95.8026 72.7004 95.8113 72.7089 95.8218C72.7174 95.8324 72.7236 95.8446 72.727 95.8577C72.7305 95.8708 72.7313 95.8845 72.7292 95.8979C72.7271 95.9113 72.7222 95.9241 72.7149 95.9355C72.7046 95.9488 72.6911 95.9591 72.6757 95.9656C72.6602 95.9722 72.6433 95.9746 72.6267 95.9726Z" fill="#FAFAFA"/>
<path d="M65.3326 95.8567L75.5406 89.9546C75.6078 89.9302 75.6659 89.8857 75.7069 89.8272C75.7479 89.7687 75.7699 89.6989 75.7699 89.6275C75.7699 89.556 75.7479 89.4862 75.7069 89.4277C75.6659 89.3692 75.6078 89.3247 75.5406 89.3003L69.6293 85.8899C69.4552 85.8019 69.2629 85.756 69.0678 85.756C68.8728 85.756 68.6805 85.8019 68.5064 85.8899L58.2984 91.7967C58.2307 91.8199 58.172 91.8636 58.1304 91.9219C58.0888 91.9801 58.0664 92.0499 58.0664 92.1215C58.0664 92.193 58.0888 92.2628 58.1304 92.321C58.172 92.3793 58.2307 92.423 58.2984 92.4463L64.2051 95.8567C64.3798 95.9455 64.5729 95.9918 64.7689 95.9918C64.9648 95.9918 65.158 95.9455 65.3326 95.8567Z" fill="#263238"/>
<path d="M69.6061 86.7344C69.4324 86.6452 69.2399 86.5987 69.0446 86.5987C68.8494 86.5987 68.6569 86.6452 68.4832 86.7344L58.4701 92.539L64.2098 95.8566C64.3838 95.9447 64.5761 95.9906 64.7712 95.9906C64.9663 95.9906 65.1586 95.9447 65.3326 95.8566L75.3504 90.0473L69.6061 86.7344Z" fill="#B0E5D9"/>
<g opacity="0.4">
<path opacity="0.4" d="M61.8202 92.8128C62.0866 92.6501 62.3901 92.5582 62.702 92.546C63.0139 92.5339 63.3237 92.6017 63.602 92.7432C64.1356 93.0494 64.1124 93.4763 63.5417 93.8058L63.0498 94.0888L63.7087 94.4693L63.2725 94.7199L60.8922 93.3278L61.8202 92.8128ZM62.8596 93.9821L63.2586 93.7501C63.6484 93.5274 63.6113 93.2861 63.1519 93.003C62.9678 92.8853 62.7548 92.8205 62.5364 92.8156C62.3179 92.8107 62.1022 92.8659 61.913 92.9752L61.514 93.2026L62.8596 93.9821Z" fill="black"/>
<path opacity="0.4" d="M63.1472 92.024L64.1355 91.4579C64.3636 91.3125 64.6242 91.2262 64.894 91.2068C65.1638 91.1873 65.4341 91.2354 65.6807 91.3465C65.7569 91.3739 65.8241 91.4219 65.8746 91.4853C65.9251 91.5486 65.957 91.6248 65.9666 91.7053C65.9763 91.7858 65.9633 91.8673 65.9292 91.9408C65.8951 92.0143 65.8411 92.0769 65.7735 92.1214C65.9266 92.0947 66.0824 92.0869 66.2375 92.0982L67.4021 92.1864L67.1376 92.539L66.0194 92.4138C65.7208 92.3377 65.405 92.3706 65.1285 92.5066L64.9939 92.5854L65.9637 93.1469L65.5229 93.3974L63.1472 92.024ZM63.7783 91.8802L64.8083 92.4787L65.3095 92.1864C65.5879 92.0286 65.5554 91.7966 65.2352 91.611C65.0882 91.5198 64.9187 91.4714 64.7457 91.4714C64.5727 91.4714 64.4031 91.5198 64.2562 91.611L63.7783 91.8802Z" fill="black"/>
<path opacity="0.4" d="M65.8803 90.4649L68.2606 91.8569L67.8244 92.1075L65.4441 90.7155L65.8803 90.4649Z" fill="black"/>
<path opacity="0.4" d="M66.7247 89.9778L69.6247 90.2562H69.7268L69.0122 89.8432C68.6921 89.6576 68.0842 89.3792 67.9172 89.2864L68.2281 89.1054L70.6084 90.4974L70.3068 90.6738L67.3511 90.3907L67.1933 90.3675L67.9821 90.8315L69.0122 91.4254L68.7245 91.5925C68.5436 91.4858 68.061 91.161 67.7409 90.98L66.3813 90.168L66.7247 89.9778Z" fill="black"/>
<path opacity="0.4" d="M70.5805 87.7552L70.8218 87.8944C70.6641 87.9826 70.2093 88.1821 69.9866 88.312L72.1767 89.5787L71.7359 89.8339L69.5458 88.5672C69.3185 88.6971 68.9751 88.9569 68.8173 89.0312L68.576 88.892L70.5805 87.7552Z" fill="black"/>
</g>
<path d="M84.4866 118.579C89.0773 119.464 93.452 121.234 97.3672 123.789C101.804 126.664 105.49 130.557 108.118 135.144C111.068 140.254 115.312 144.496 120.423 147.444L128.451 152.084V150.024L120.423 145.384C115.319 142.433 111.566 137.876 108.615 132.768C105.97 128.193 101.812 124.583 97.3672 121.729C93.8439 119.432 89.9489 117.763 85.8554 116.797L84.5051 117.576L84.4866 118.579Z" fill="#E0E0E0"/>
<g opacity="0.05">
<path opacity="0.05" d="M84.4866 118.579C89.0773 119.464 93.452 121.234 97.3672 123.789C101.804 126.664 105.49 130.557 108.118 135.144C111.068 140.254 115.312 144.496 120.423 147.444L128.451 152.084V150.024L120.423 145.384C115.319 142.433 111.566 137.876 108.615 132.768C105.97 128.193 101.812 124.583 97.3672 121.729C93.8439 119.432 89.9489 117.763 85.8554 116.797L84.5051 117.576L84.4866 118.579Z" fill="black"/>
</g>
<path d="M175.157 123.038L128.451 150.038V152.08L175.157 125.065V123.038Z" fill="#EBEBEB"/>
<path d="M128.451 150.024L120.423 145.384C115.319 142.433 111.566 137.876 108.615 132.768C105.97 128.193 101.812 124.583 97.3673 121.729C93.844 119.432 89.949 117.763 85.8555 116.797L132.548 89.7875C136.646 90.7566 140.545 92.4269 144.074 94.7245C148.523 97.5781 152.551 101.364 155.21 105.944C158.161 111.048 162.04 115.428 167.148 118.379L175.175 123.019L128.451 150.024Z" fill="#FAFAFA"/>
<path d="M94.6759 116.713C94.5801 116.715 94.4864 116.684 94.4099 116.626C94.3333 116.569 94.2782 116.487 94.2532 116.395C94.2282 116.302 94.2347 116.204 94.2718 116.115C94.3089 116.027 94.3743 115.953 94.4579 115.906L121.834 100.06C121.933 100.007 122.049 99.9941 122.157 100.025C122.265 100.055 122.357 100.127 122.413 100.224C122.469 100.321 122.485 100.437 122.458 100.546C122.43 100.655 122.361 100.749 122.265 100.808L94.8894 116.653C94.825 116.692 94.7512 116.713 94.6759 116.713Z" fill="#E0E0E0"/>
<path d="M99.1119 118.852C99.0165 118.852 98.9239 118.82 98.8484 118.761C98.7729 118.703 98.7186 118.622 98.6939 118.529C98.6691 118.437 98.6753 118.34 98.7114 118.251C98.7475 118.163 98.8116 118.089 98.8938 118.04L126.27 102.195C126.319 102.167 126.374 102.148 126.43 102.141C126.487 102.134 126.544 102.138 126.599 102.152C126.654 102.167 126.705 102.193 126.75 102.228C126.795 102.262 126.833 102.306 126.861 102.355C126.89 102.404 126.908 102.459 126.915 102.515C126.923 102.572 126.919 102.629 126.904 102.684C126.889 102.739 126.863 102.79 126.829 102.835C126.794 102.88 126.751 102.918 126.701 102.947L99.3253 118.792C99.2609 118.831 99.1872 118.852 99.1119 118.852Z" fill="#E0E0E0"/>
<path d="M103.144 121.428C103.068 121.429 102.993 121.41 102.927 121.373C102.861 121.335 102.806 121.28 102.768 121.214C102.739 121.165 102.72 121.11 102.712 121.054C102.705 120.997 102.708 120.94 102.723 120.884C102.738 120.829 102.763 120.777 102.798 120.732C102.833 120.687 102.876 120.649 102.926 120.62L130.302 104.775C130.401 104.728 130.513 104.721 130.618 104.753C130.722 104.786 130.81 104.856 130.865 104.951C130.919 105.045 130.937 105.157 130.913 105.263C130.89 105.37 130.827 105.464 130.738 105.526L103.362 121.372C103.295 121.408 103.22 121.427 103.144 121.428Z" fill="#E0E0E0"/>
<path d="M107.051 124.601C106.955 124.602 106.862 124.57 106.787 124.512C106.711 124.454 106.657 124.373 106.632 124.28C106.608 124.188 106.615 124.09 106.652 124.002C106.689 123.914 106.754 123.841 106.837 123.794L134.213 107.948C134.263 107.919 134.317 107.9 134.374 107.893C134.431 107.885 134.488 107.888 134.543 107.903C134.599 107.918 134.65 107.943 134.696 107.978C134.741 108.013 134.779 108.057 134.807 108.106C134.858 108.208 134.869 108.325 134.839 108.434C134.809 108.543 134.74 108.638 134.645 108.7L107.269 124.546C107.202 124.582 107.127 124.601 107.051 124.601Z" fill="#E0E0E0"/>
<path d="M110.452 128.286C110.376 128.287 110.301 128.268 110.235 128.231C110.169 128.193 110.114 128.138 110.076 128.072C110.047 128.023 110.028 127.968 110.02 127.912C110.013 127.855 110.016 127.797 110.031 127.742C110.046 127.687 110.071 127.635 110.106 127.59C110.141 127.545 110.184 127.507 110.234 127.478L137.61 111.633C137.709 111.586 137.821 111.579 137.926 111.611C138.03 111.644 138.118 111.714 138.173 111.809C138.227 111.903 138.245 112.014 138.221 112.121C138.198 112.228 138.135 112.322 138.046 112.384L110.67 128.23C110.603 128.266 110.528 128.285 110.452 128.286Z" fill="#E0E0E0"/>
<path d="M113.18 132.499C113.084 132.5 112.991 132.469 112.914 132.412C112.838 132.354 112.783 132.272 112.758 132.18C112.733 132.087 112.739 131.989 112.776 131.9C112.813 131.812 112.879 131.738 112.962 131.691L140.338 115.846C140.437 115.792 140.553 115.779 140.661 115.81C140.769 115.84 140.861 115.912 140.917 116.009C140.974 116.107 140.99 116.222 140.962 116.331C140.934 116.44 140.865 116.534 140.77 116.593L113.394 132.443C113.328 132.478 113.255 132.498 113.18 132.499Z" fill="#E0E0E0"/>
<path d="M116.08 136.619C115.984 136.62 115.891 136.59 115.814 136.532C115.738 136.474 115.683 136.393 115.658 136.3C115.633 136.208 115.639 136.109 115.676 136.021C115.713 135.932 115.779 135.859 115.862 135.812L143.238 119.966C143.337 119.913 143.453 119.9 143.561 119.93C143.669 119.961 143.761 120.032 143.817 120.13C143.874 120.227 143.89 120.342 143.862 120.451C143.835 120.56 143.766 120.654 143.67 120.713L116.294 136.559C116.229 136.598 116.156 136.619 116.08 136.619Z" fill="#E0E0E0"/>
<path d="M126.882 98.056C126.806 98.0576 126.731 98.0386 126.665 98.001C126.599 97.9634 126.544 97.9087 126.506 97.8426C126.477 97.7933 126.458 97.7388 126.451 97.6821C126.443 97.6255 126.446 97.5679 126.461 97.5126C126.476 97.4573 126.501 97.4056 126.536 97.3602C126.571 97.3149 126.614 97.277 126.664 97.2486L133.67 93.1887C133.77 93.1314 133.888 93.1162 133.999 93.1462C134.11 93.1762 134.205 93.2491 134.262 93.3488C134.319 93.4484 134.335 93.5668 134.305 93.6777C134.275 93.7886 134.202 93.8831 134.102 93.9403L127.096 98.0003C127.03 98.0358 126.957 98.0549 126.882 98.056Z" fill="#E0E0E0"/>
<path d="M131.314 100.209C131.218 100.21 131.124 100.18 131.047 100.122C130.971 100.064 130.916 99.9826 130.891 99.89C130.866 99.7975 130.872 99.6992 130.909 99.6107C130.946 99.5223 131.012 99.4487 131.095 99.4016L138.106 95.3416C138.156 95.3114 138.21 95.2914 138.267 95.2827C138.324 95.2739 138.382 95.2768 138.438 95.2909C138.494 95.3051 138.547 95.3303 138.593 95.365C138.639 95.3998 138.677 95.4435 138.706 95.4934C138.735 95.5433 138.754 95.5985 138.761 95.6558C138.768 95.713 138.763 95.771 138.748 95.8265C138.732 95.882 138.705 95.9338 138.669 95.9788C138.633 96.0239 138.589 96.0612 138.538 96.0887L131.532 100.153C131.465 100.189 131.39 100.209 131.314 100.209Z" fill="#E0E0E0"/>
<path d="M135.341 102.789C135.265 102.788 135.19 102.768 135.124 102.73C135.058 102.692 135.003 102.637 134.965 102.571C134.936 102.522 134.917 102.468 134.91 102.411C134.902 102.355 134.905 102.298 134.92 102.243C134.935 102.188 134.96 102.137 134.995 102.092C135.03 102.047 135.073 102.009 135.123 101.981L142.129 97.9214C142.178 97.8928 142.233 97.8741 142.289 97.8664C142.345 97.8587 142.402 97.8622 142.457 97.8766C142.512 97.8911 142.564 97.9162 142.609 97.9505C142.654 97.9849 142.692 98.0278 142.721 98.0769C142.75 98.1259 142.768 98.1801 142.776 98.2364C142.784 98.2927 142.78 98.3499 142.766 98.4049C142.751 98.4598 142.726 98.5113 142.692 98.5566C142.657 98.6018 142.615 98.6398 142.565 98.6685L135.554 102.728C135.491 102.769 135.416 102.79 135.341 102.789Z" fill="#E0E0E0"/>
<path d="M139.257 105.944C139.181 105.944 139.106 105.923 139.04 105.885C138.974 105.847 138.919 105.792 138.881 105.726C138.852 105.677 138.833 105.623 138.826 105.567C138.818 105.51 138.822 105.453 138.836 105.398C138.851 105.343 138.876 105.292 138.911 105.247C138.946 105.202 138.99 105.165 139.039 105.137L146.045 101.077C146.145 101.019 146.263 101.003 146.373 101.032C146.484 101.061 146.579 101.133 146.637 101.232C146.695 101.331 146.711 101.449 146.682 101.56C146.653 101.671 146.581 101.766 146.482 101.824L139.471 105.884C139.407 105.924 139.333 105.945 139.257 105.944Z" fill="#E0E0E0"/>
<path d="M142.654 109.656C142.577 109.656 142.503 109.635 142.437 109.597C142.371 109.559 142.316 109.504 142.278 109.438C142.249 109.389 142.23 109.335 142.222 109.279C142.214 109.222 142.218 109.165 142.233 109.11C142.247 109.055 142.273 109.004 142.308 108.959C142.343 108.914 142.386 108.877 142.436 108.849L149.442 104.789C149.491 104.76 149.545 104.741 149.601 104.734C149.658 104.726 149.715 104.729 149.77 104.744C149.825 104.758 149.876 104.783 149.922 104.818C149.967 104.852 150.005 104.895 150.034 104.944C150.062 104.993 150.081 105.047 150.089 105.104C150.096 105.16 150.093 105.217 150.078 105.272C150.064 105.327 150.039 105.379 150.004 105.424C149.97 105.469 149.927 105.507 149.878 105.536L142.867 109.596C142.803 109.636 142.729 109.657 142.654 109.656Z" fill="#E0E0E0"/>
<path d="M145.368 113.86C145.273 113.86 145.18 113.829 145.104 113.771C145.028 113.713 144.974 113.631 144.949 113.539C144.925 113.446 144.932 113.348 144.969 113.261C145.006 113.173 145.071 113.099 145.155 113.052L152.161 108.988C152.261 108.931 152.379 108.915 152.49 108.945C152.601 108.975 152.695 109.048 152.753 109.148C152.81 109.248 152.825 109.366 152.795 109.477C152.765 109.588 152.692 109.682 152.592 109.74L145.586 113.8C145.52 113.839 145.445 113.86 145.368 113.86Z" fill="#E0E0E0"/>
<path d="M148.282 117.98C148.206 117.977 148.132 117.956 148.067 117.918C148.001 117.88 147.946 117.826 147.906 117.762C147.85 117.663 147.835 117.545 147.865 117.435C147.894 117.325 147.966 117.231 148.064 117.173L155.075 113.108C155.175 113.051 155.293 113.036 155.404 113.066C155.515 113.096 155.609 113.169 155.667 113.268C155.724 113.368 155.739 113.486 155.709 113.597C155.679 113.708 155.606 113.803 155.506 113.86L148.5 117.92C148.434 117.96 148.359 117.981 148.282 117.98Z" fill="#E0E0E0"/>
<path d="M155.711 119.808C156.414 119.53 157.163 119.383 157.919 119.377C158.223 119.374 158.526 119.402 158.824 119.46C159.053 119.503 159.276 119.573 159.488 119.669C159.576 119.716 159.613 119.767 159.608 119.827C159.602 119.861 159.588 119.893 159.567 119.921C159.546 119.948 159.519 119.97 159.488 119.985L158.787 120.388C158.69 120.449 158.58 120.486 158.467 120.495C158.359 120.506 158.25 120.506 158.142 120.495C157.847 120.451 157.546 120.451 157.251 120.495C156.864 120.563 156.494 120.705 156.161 120.913C156.002 121.001 155.854 121.107 155.72 121.228C155.616 121.321 155.531 121.433 155.469 121.558C155.43 121.656 155.43 121.765 155.469 121.864C155.517 121.975 155.602 122.066 155.711 122.119C155.853 122.203 156.011 122.255 156.175 122.272C156.379 122.28 156.584 122.258 156.782 122.207C157.061 122.142 157.336 122.058 157.604 121.957C157.919 121.845 158.304 121.706 158.75 121.539C159.18 121.376 159.62 121.239 160.068 121.131C160.428 121.042 160.796 120.992 161.167 120.982C161.48 120.973 161.793 121.009 162.095 121.089C162.391 121.168 162.675 121.287 162.94 121.442C163.169 121.564 163.367 121.737 163.52 121.947C163.644 122.123 163.706 122.335 163.696 122.551C163.677 122.79 163.592 123.02 163.45 123.214C163.263 123.476 163.034 123.705 162.773 123.892L163.45 124.286C163.483 124.296 163.513 124.317 163.533 124.345C163.554 124.373 163.565 124.407 163.565 124.441C163.565 124.476 163.554 124.51 163.533 124.538C163.513 124.566 163.483 124.587 163.45 124.597L162.643 125.061C162.56 125.106 162.467 125.128 162.374 125.126C162.28 125.129 162.187 125.106 162.104 125.061L161.422 124.666C161.073 124.815 160.711 124.933 160.341 125.019C159.983 125.105 159.618 125.161 159.251 125.186C158.907 125.206 158.562 125.19 158.221 125.14C157.909 125.091 157.607 124.994 157.325 124.852C157.242 124.81 157.2 124.759 157.205 124.699C157.21 124.665 157.224 124.633 157.245 124.605C157.267 124.578 157.294 124.556 157.325 124.541L158.026 124.137C158.13 124.083 158.243 124.05 158.36 124.04C158.469 124.024 158.58 124.024 158.689 124.04C158.832 124.065 158.976 124.082 159.121 124.091C159.287 124.104 159.453 124.096 159.617 124.068C159.818 124.034 160.015 123.985 160.207 123.919C160.449 123.83 160.684 123.72 160.907 123.59C161.094 123.482 161.272 123.361 161.441 123.228C161.576 123.128 161.691 123.004 161.78 122.861C161.845 122.758 161.874 122.635 161.863 122.513C161.845 122.448 161.813 122.388 161.768 122.337C161.724 122.285 161.67 122.244 161.608 122.216C161.455 122.132 161.282 122.088 161.107 122.091C160.882 122.096 160.658 122.132 160.443 122.198C160.188 122.268 159.887 122.365 159.548 122.495C159.209 122.625 158.81 122.764 158.351 122.922C157.971 123.057 157.584 123.17 157.191 123.26C156.854 123.337 156.51 123.378 156.165 123.386C155.523 123.393 154.892 123.221 154.342 122.889C154.114 122.77 153.919 122.598 153.771 122.388C153.658 122.216 153.596 122.014 153.595 121.808C153.6 121.587 153.667 121.371 153.79 121.186C153.939 120.954 154.126 120.747 154.342 120.574L153.664 120.18C153.631 120.169 153.602 120.149 153.581 120.121C153.56 120.093 153.549 120.059 153.549 120.024C153.549 119.989 153.56 119.955 153.581 119.927C153.602 119.899 153.631 119.879 153.664 119.869L154.472 119.405C154.555 119.362 154.647 119.341 154.741 119.344C154.834 119.34 154.927 119.361 155.01 119.405L155.711 119.808Z" fill="#B0E5D9"/>
<path d="M134.928 134.197L139.86 137.041L140.566 136.633L135.633 133.789L134.928 134.197Z" fill="#455A64"/>
<path d="M140.403 131.037L145.336 133.881L146.041 133.473L141.108 130.624L140.403 131.037Z" fill="#455A64"/>
<path d="M144.997 128.383L149.929 131.232L150.389 130.968L145.456 128.119L144.997 128.383Z" fill="#455A64"/>
<path d="M137.74 132.573L142.672 135.422L143.025 135.218L138.093 132.369L137.74 132.573Z" fill="#455A64"/>
<path d="M141.6 130.341L146.533 133.19L146.885 132.986L141.953 130.137L141.6 130.341Z" fill="#455A64"/>
<path d="M144.092 128.907L149.024 131.752L149.377 131.548L144.445 128.699L144.092 128.907Z" fill="#455A64"/>
<path d="M136.185 133.468L141.118 136.317L142.375 135.589L137.443 132.745L136.185 133.468Z" fill="#455A64"/>
<path d="M138.7 132.016L143.633 134.865L144.895 134.137L139.962 131.288L138.7 132.016Z" fill="#455A64"/>
<path d="M142.477 129.835L147.41 132.684L148.273 132.188L143.34 129.339L142.477 129.835Z" fill="#455A64"/>
<path d="M123.245 140.939L128.177 143.788L128.887 143.38L123.954 140.531L123.245 140.939Z" fill="#455A64"/>
<path d="M128.72 137.779L133.652 140.628L134.362 140.22L129.43 137.371L128.72 137.779Z" fill="#455A64"/>
<path d="M133.313 135.125L138.246 137.974L138.956 137.566L134.023 134.717L133.313 135.125Z" fill="#455A64"/>
<path d="M126.056 139.32L130.989 142.164L131.341 141.96L126.409 139.115L126.056 139.32Z" fill="#455A64"/>
<path d="M129.889 137.102L134.821 139.951L135.179 139.746L130.246 136.897L129.889 137.102Z" fill="#455A64"/>
<path d="M132.408 135.649L137.341 138.498L137.698 138.294L132.766 135.445L132.408 135.649Z" fill="#455A64"/>
<path d="M124.502 140.215L129.434 143.064L130.367 142.526L125.435 139.677L124.502 140.215Z" fill="#455A64"/>
<path d="M127.021 138.763L131.954 141.607L132.979 141.018L128.047 138.169L127.021 138.763Z" fill="#455A64"/>
<path d="M130.84 136.554L135.773 139.403L136.742 138.846L131.81 136.002L130.84 136.554Z" fill="#455A64"/>
<path d="M146.161 127.71L151.094 130.555L151.804 130.146L146.871 127.297L146.161 127.71Z" fill="#455A64"/>
<path d="M147.456 126.963L152.388 129.812L152.741 129.608L147.809 126.759L147.456 126.963Z" fill="#455A64"/>
<path d="M149.855 125.58L154.787 128.425L155.14 128.221L150.207 125.376L149.855 125.58Z" fill="#455A64"/>
<path d="M148.486 126.369L153.418 129.214L154.43 128.629L149.498 125.785L148.486 126.369Z" fill="#455A64"/>
</svg>
