<svg width="45" height="46" viewBox="0 0 45 46" fill="none" xmlns="http://www.w3.org/2000/svg">
<g clip-path="url(#clip0_729_3751)">
<path d="M44.9746 22.2597C44.7969 19.8756 43.7049 17.5919 41.978 15.9105C42.2066 15.5592 42.4351 15.2078 42.6129 14.8063C43.4001 13.2002 43.7303 11.4937 43.6033 9.71194C43.5779 9.61156 43.5779 9.53627 43.5525 9.43589C43.4001 7.7294 42.8668 6.17348 41.9018 4.76813C40.4543 2.63502 38.1942 1.15439 35.6547 0.677572C33.1152 0.200758 30.4487 0.727763 28.2901 2.1582C28.0108 2.33387 27.7568 2.53464 27.5029 2.7354C27.3505 2.58483 27.1981 2.43425 27.0457 2.30878L25.0141 0.953622C23.465 0.200758 21.8144 -0.125483 20.0875 -5.85429e-06C19.3003 0.175662 18.4876 0.326235 17.7004 0.501904C16.1259 1.0791 14.8053 1.95744 13.7134 3.16202C13.5356 3.36279 13.3578 3.56355 13.2054 3.78941C12.1896 3.76431 11.1992 3.91489 10.2088 4.26622C8.81211 4.76813 7.61854 5.54609 6.62814 6.65029C5.61233 7.77959 4.97746 9.10965 4.67272 10.5903C4.62193 10.8412 4.59653 11.0922 4.57114 11.3431C4.01245 11.7698 3.50455 12.2717 3.02204 12.7987C1.57452 14.4299 0.634908 16.3121 0.228587 18.4452C-0.177733 20.5783 -0.0253629 22.6612 0.685698 24.719C0.711093 24.7943 0.736488 24.8947 0.787278 24.97C1.49834 26.9274 2.64112 28.6088 4.21561 29.9891C5.86628 31.3944 7.74552 32.323 9.8787 32.7245C12.0119 33.126 14.1197 32.9754 16.1767 32.2728C16.6846 32.0218 17.1671 31.7709 17.675 31.5199C17.9289 31.796 18.1829 32.072 18.4622 32.323C20.1637 33.8036 22.1191 34.2553 24.3285 34.2553C26.5124 34.2553 28.4425 33.126 29.763 31.4948C31.5661 32.5488 33.5469 32.9002 35.7308 32.9002C38.245 32.9002 40.9114 31.3693 42.5113 29.5625C44.2636 27.5799 45.1778 24.8947 44.9746 22.2597Z" fill="#B0E5D9"/>
<g style="mix-blend-mode:multiply" opacity="0.2">
<path d="M7.89789 22.7616C7.72012 21.3813 7.51696 20.0011 7.3392 18.6208C7.3392 18.4954 7.3392 18.395 7.36459 18.2695C7.36459 15.4588 8.10105 12.8238 9.52317 10.3895C10.3358 9.33551 11.1738 8.2815 11.9865 7.22749C13.3324 5.89743 14.8815 4.84342 16.583 4.06546C17.0909 2.7354 17.7766 1.45553 18.6146 0.326233C18.3099 0.401519 18.0051 0.45171 17.7004 0.526997C16.1259 1.0791 14.8053 1.95744 13.7134 3.18712C13.5356 3.38788 13.3578 3.58864 13.2055 3.8145C12.1896 3.78941 11.1992 3.93998 10.2088 4.29132C8.81211 4.79323 7.61854 5.57119 6.62814 6.67539C5.61234 7.80468 4.97746 9.13474 4.67272 10.6154C4.62193 10.8663 4.59653 11.1173 4.57114 11.3682C4.01245 11.7949 3.50455 12.2968 3.02204 12.8238C1.57452 14.455 0.634908 16.3371 0.228587 18.4703C-0.177733 20.6034 -0.0253629 22.6863 0.685698 24.7441C0.711093 24.8194 0.736488 24.9198 0.787278 24.9951C1.49834 26.9525 2.64112 28.6339 4.21561 30.0142C5.86629 31.4195 7.74552 32.3481 9.8787 32.7496C11.8849 33.126 13.8403 33.0256 15.745 32.4233C14.3482 31.6956 13.0785 30.767 11.9611 29.6628C10.0057 27.7054 8.63434 25.4217 7.89789 22.7616Z" fill="#B0E5D9"/>
</g>
<path d="M22.1953 46L24.7348 20.9045H25.7506L28.2901 46H22.1953Z" fill="#603E2A"/>
<path d="M24.7601 28.7845L29.4836 25.5723L29.7883 25.8734L26.5378 30.5663L24.7601 28.7845Z" fill="#603E2A"/>
<path d="M24.7602 36.0873L21.5096 31.3944L21.8144 31.0933L26.5379 34.3055L24.7602 36.0873Z" fill="#603E2A"/>
</g>
<defs>
<clipPath id="clip0_729_3751">
<rect width="45" height="46" fill="white"/>
</clipPath>
</defs>
</svg>
