<svg width="45" height="46" viewBox="0 0 45 46" fill="none" xmlns="http://www.w3.org/2000/svg">
<path d="M37 28.7961C37 36.6536 30.4956 43 22.5 43C14.5044 43 8 36.6536 8 28.7961C8 20.9638 22.5 2 22.5 2C22.5 2 37 20.9638 37 28.7961Z" fill="#A2EBFF"/>
<g style="mix-blend-mode:multiply" opacity="0.5">
<path fill-rule="evenodd" clip-rule="evenodd" d="M30.3007 40.7712C29.3902 40.9217 28.4544 41 27.5 41C18.4016 41 11 33.8796 11 25.0639C11 19.8824 16.7367 10.3588 21.4449 3.41516C18.1076 7.95806 8 22.2568 8 28.7961C8 36.6536 14.5044 43 22.5 43C25.3695 43 28.047 42.1826 30.3007 40.7712Z" fill="#A2EBFF"/>
</g>
</svg>
