<svg width="13" height="12" viewBox="0 0 13 12" fill="none" xmlns="http://www.w3.org/2000/svg">
<path d="M6.60784 7.66249C7.12743 7.66249 7.63231 7.80653 8.07716 8.08118L8.25741 8.19246C8.39406 8.27682 8.41809 8.47427 8.30605 8.59213L6.76711 10.2111C6.67258 10.3106 6.51932 10.3106 6.4248 10.2111L4.89574 8.60253C4.7842 8.48519 4.80745 8.28875 4.94294 8.20376L5.12116 8.09197C5.5701 7.81037 6.08139 7.66249 6.60784 7.66249Z" fill="black"/>
<path d="M6.60779 4.68845C7.90035 4.68845 9.14138 5.1408 10.1524 5.9785L10.2952 6.09689C10.4091 6.19128 10.4192 6.36913 10.3166 6.47699L9.39787 7.44354C9.31289 7.53294 9.17843 7.5432 9.08207 7.46765L8.97007 7.37984C8.28725 6.84449 7.4639 6.55732 6.60779 6.55732C5.74642 6.55732 4.91825 6.84806 4.23317 7.38956L4.12105 7.47817C4.02469 7.55434 3.88973 7.54431 3.8045 7.45465L2.88608 6.48846C2.78377 6.38082 2.79348 6.20342 2.90687 6.10886L3.04894 5.99037C4.06233 5.1452 5.309 4.68845 6.60779 4.68845Z" fill="black"/>
<path d="M6.60783 1.71428C8.65914 1.71428 10.6208 2.47763 12.1735 3.8768L12.306 3.99623C12.4131 4.09275 12.4195 4.26477 12.3197 4.36968L11.404 5.33309C11.3152 5.42643 11.1734 5.43297 11.0773 5.34816L10.9639 5.24813C9.74138 4.16975 8.20913 3.58315 6.60783 3.58315C5.00108 3.58315 3.46391 4.17379 2.23958 5.25892L2.12615 5.35945C2.03003 5.44465 1.88791 5.43827 1.79904 5.34477L0.883396 4.3815C0.783813 4.27674 0.789942 4.105 0.896712 4.00839L1.02874 3.88892C2.58337 2.48218 4.55045 1.71428 6.60783 1.71428Z" fill="black"/>
</svg>
